<svg width="76" height="68" viewBox="0 0 76 68" fill="none" xmlns="http://www.w3.org/2000/svg">
<rect y="0.400024" width="76" height="67.2144" rx="6.4" fill="#C8FFA6"/>
<path d="M39.6243 22.7667C39.6243 21.8693 38.8968 21.1417 37.9993 21.1417C37.1019 21.1417 36.3743 21.8693 36.3743 22.7667V33.6001C36.3743 34.1603 36.663 34.6811 37.1381 34.9781L43.6381 39.0406C44.3991 39.5162 45.4017 39.2849 45.8773 38.5238C46.353 37.7628 46.1216 36.7602 45.3606 36.2846L39.6243 32.6994V22.7667Z" fill="black"/>
<path fill-rule="evenodd" clip-rule="evenodd" d="M37.9993 14.6417C27.529 14.6417 19.041 23.1297 19.041 33.6001C19.041 44.0705 27.529 52.5584 37.9993 52.5584C48.4697 52.5584 56.9577 44.0705 56.9577 33.6001C56.9577 23.1297 48.4697 14.6417 37.9993 14.6417ZM22.291 33.6001C22.291 24.9246 29.3239 17.8917 37.9993 17.8917C46.6748 17.8917 53.7077 24.9246 53.7077 33.6001C53.7077 42.2755 46.6748 49.3084 37.9993 49.3084C29.3239 49.3084 22.291 42.2755 22.291 33.6001Z" fill="black"/>
</svg>
