<svg width="77" height="68" viewBox="0 0 77 68" fill="none" xmlns="http://www.w3.org/2000/svg">
<rect x="0.600586" y="0.400024" width="76" height="67.2144" rx="6.4" fill="#A8E388"/>
<path d="M18.2754 29.3312C18.2754 23.4801 23.4085 18.975 29.4337 18.975C32.5396 18.975 35.2725 20.4313 37.2337 22.3156C39.1949 20.4313 41.9279 18.975 45.0337 18.975C51.0589 18.975 56.1921 23.4801 56.1921 29.3312C56.1921 29.683 56.1789 30.0311 56.1533 30.3754C56.1288 30.7046 55.8494 30.9518 55.5194 30.9518H53.5753C53.1776 30.9518 52.8747 30.5978 52.9068 30.2014C52.9302 29.9133 52.9421 29.6232 52.9421 29.3312C52.9421 25.538 49.5388 22.225 45.0337 22.225C42.4464 22.225 40.0305 23.7707 38.5219 25.7326C38.2144 26.1327 37.7384 26.3671 37.2337 26.3671C36.7291 26.3671 36.2531 26.1327 35.9455 25.7326C34.437 23.7707 32.0211 22.225 29.4337 22.225C24.9287 22.225 21.5254 25.538 21.5254 29.3312C21.5254 32.3721 22.8163 35.2033 24.8969 37.8211C26.9817 40.4441 29.7867 42.7583 32.6203 44.7214C33.6926 45.4642 34.7025 46.0963 35.5664 46.5362C36.4941 47.0087 37.0315 47.1416 37.2337 47.1416C37.436 47.1416 37.9733 47.0087 38.9011 46.5362C39.765 46.0963 40.7749 45.4642 41.8471 44.7214C42.7701 44.082 43.69 43.4053 44.583 42.6929C44.8983 42.4413 45.3656 42.5259 45.5661 42.8759L46.5447 44.5839C46.7034 44.861 46.6377 45.2126 46.3869 45.4102C45.4943 46.1137 44.5902 46.7748 43.6979 47.3929C42.5671 48.1763 41.423 48.899 40.376 49.4323C39.3928 49.933 38.2623 50.3916 37.2337 50.3916C36.2051 50.3916 35.0746 49.933 34.0915 49.4323C33.0444 48.899 31.9004 48.1763 30.7695 47.3929C27.8088 45.3418 24.7166 42.8175 22.3527 39.8433C19.9846 36.8639 18.2754 33.3393 18.2754 29.3312Z" fill="black"/>
<path d="M45.4818 28.5896C45.2486 28.0809 44.7701 27.7279 44.2152 27.6554C43.6604 27.5828 43.1072 27.8009 42.7511 28.2325L38.2733 33.6602H35.0671C34.1696 33.6602 33.4421 34.3877 33.4421 35.2852C33.4421 36.1826 34.1696 36.9102 35.0671 36.9102H39.0393C39.5244 36.9102 39.9841 36.6935 40.2928 36.3193L43.6078 32.3011L47.4926 40.777C47.7258 41.2858 48.2043 41.6387 48.7592 41.7113C49.314 41.7838 49.8672 41.5658 50.2233 41.1341L53.7081 36.9102H58.9004C59.7979 36.9102 60.5254 36.1826 60.5254 35.2852C60.5254 34.3877 59.7979 33.6602 58.9004 33.6602H52.9421C52.457 33.6602 51.9973 33.8769 51.6886 34.251L49.3666 37.0656L45.4818 28.5896Z" fill="black"/>
</svg>
