<svg width="18" height="18" viewBox="0 0 18 18" fill="none" xmlns="http://www.w3.org/2000/svg">
<path fill-rule="evenodd" clip-rule="evenodd" d="M4.94177 0.800049C5.3836 0.800049 5.74177 1.15822 5.74177 1.60005C5.74177 2.04188 5.3836 2.40005 4.94177 2.40005H2.3998L2.39981 16.3249H4.94177C5.3836 16.3249 5.74177 16.6831 5.74177 17.1249C5.74177 17.5667 5.3836 17.9249 4.94177 17.9249H2.39981C1.51615 17.9249 0.799805 17.2086 0.799805 16.3249V2.40005C0.799805 1.51639 1.51615 0.800049 2.3998 0.800049H4.94177ZM12.315 13.1829L15.3768 10.1211L5.94869 10.1211C5.50686 10.1211 5.14869 9.76292 5.14869 9.32109C5.14869 8.87926 5.50686 8.52109 5.94869 8.52109H15.3763L12.315 5.45978C12.0026 5.14736 12.0026 4.64083 12.315 4.32841C12.6274 4.01599 13.1339 4.01599 13.4463 4.32841L17.3079 8.18997C17.9327 8.81481 17.9327 9.82787 17.3079 10.4527L13.4463 14.3143C13.1339 14.6267 12.6274 14.6267 12.315 14.3143C12.0026 14.0019 12.0026 13.4953 12.315 13.1829Z" fill="#353F2F"/>
</svg>
