<svg width="40" height="41" viewBox="0 0 40 41" fill="none" xmlns="http://www.w3.org/2000/svg">
<path d="M36.1003 17.8833L21.1003 4.54993C20.7961 4.28273 20.4051 4.13538 20.0003 4.13538C19.5954 4.13538 19.2044 4.28273 18.9003 4.54993L3.90028 17.8833C3.64534 18.1088 3.46556 18.407 3.38511 18.7377C3.30466 19.0684 3.32741 19.4158 3.45028 19.7333C3.57114 20.0465 3.78379 20.3159 4.06036 20.5062C4.33694 20.6966 4.66454 20.7989 5.00028 20.7999H6.66695V35.7999C6.66695 36.242 6.84254 36.6659 7.1551 36.9784C7.46766 37.291 7.89159 37.4666 8.33361 37.4666H31.6669C32.109 37.4666 32.5329 37.291 32.8455 36.9784C33.158 36.6659 33.3336 36.242 33.3336 35.7999V20.7999H35.0003C35.336 20.7989 35.6636 20.6966 35.9402 20.5062C36.2168 20.3159 36.4294 20.0465 36.5503 19.7333C36.6732 19.4158 36.6959 19.0684 36.6155 18.7377C36.535 18.407 36.3552 18.1088 36.1003 17.8833ZM21.6669 34.1333H18.3336V29.1333C18.3336 28.6912 18.5092 28.2673 18.8218 27.9548C19.1343 27.6422 19.5583 27.4666 20.0003 27.4666C20.4423 27.4666 20.8662 27.6422 21.1788 27.9548C21.4914 28.2673 21.6669 28.6912 21.6669 29.1333V34.1333ZM30.0003 34.1333H25.0003V29.1333C25.0003 27.8072 24.4735 26.5354 23.5358 25.5977C22.5981 24.6601 21.3264 24.1333 20.0003 24.1333C18.6742 24.1333 17.4024 24.6601 16.4647 25.5977C15.5271 26.5354 15.0003 27.8072 15.0003 29.1333V34.1333H10.0003V20.7999H30.0003V34.1333ZM9.38361 17.4666L20.0003 8.03327L30.6169 17.4666H9.38361Z" fill="#C8FFA6"/>
</svg>
