<svg width="76" height="68" viewBox="0 0 76 68" fill="none" xmlns="http://www.w3.org/2000/svg">
<rect y="0.400024" width="76" height="67.2144" rx="6.4" fill="#81B366"/>
<path fill-rule="evenodd" clip-rule="evenodd" d="M41.3756 19.5909C39.4894 17.7809 36.5112 17.7809 34.625 19.5909L24.6011 29.2094C24.3555 29.4451 24.1903 29.7521 24.1289 30.0869C22.9283 36.6342 22.8396 43.3371 23.8667 49.9139L24.1105 51.475H30.5595V38.0171C30.5595 37.1196 31.287 36.3921 32.1845 36.3921H43.8161C44.7136 36.3921 45.4411 37.1196 45.4411 38.0171V51.475H51.8901L52.1339 49.9139C53.161 43.3371 53.0723 36.6342 51.8717 30.0869C51.8103 29.7521 51.6451 29.4451 51.3995 29.2094L41.3756 19.5909ZM32.3748 17.2458C35.5185 14.2293 40.4821 14.2293 43.6258 17.2458L53.6497 26.8644C54.3876 27.5724 54.884 28.4948 55.0684 29.5007C56.3349 36.4072 56.4284 43.4778 55.345 50.4154L54.9533 52.9232C54.7913 53.9604 53.898 54.725 52.8483 54.725H43.8161C42.9186 54.725 42.1911 53.9974 42.1911 53.1V39.6421H33.8095V53.1C33.8095 53.9974 33.082 54.725 32.1845 54.725H23.1523C22.1025 54.725 21.2093 53.9604 21.0473 52.9232L20.6556 50.4154C19.5722 43.4778 19.6657 36.4072 20.9322 29.5007C21.1166 28.4948 21.613 27.5724 22.3509 26.8644L32.3748 17.2458Z" fill="black"/>
</svg>
