<svg width="47" height="48" viewBox="0 0 47 48" fill="none" xmlns="http://www.w3.org/2000/svg">
<path d="M22.7559 16.8274C22.5762 16.6462 22.3623 16.5023 22.1267 16.4042C21.8911 16.306 21.6384 16.2555 21.3832 16.2555C21.128 16.2555 20.8753 16.306 20.6397 16.4042C20.4041 16.5023 20.1903 16.6462 20.0105 16.8274L14.2105 22.6274C14.0293 22.8071 13.8855 23.0209 13.7874 23.2565C13.6892 23.4921 13.6387 23.7448 13.6387 24C13.6387 24.2553 13.6892 24.508 13.7874 24.7436C13.8855 24.9791 14.0293 25.193 14.2105 25.3727L20.0105 31.1727C20.1903 31.3539 20.4041 31.4977 20.6397 31.5959C20.8753 31.694 21.128 31.7446 21.3832 31.7446C21.6384 31.7446 21.8911 31.694 22.1267 31.5959C22.3623 31.4977 22.5762 31.3539 22.7559 31.1727C22.9371 30.993 23.0809 30.7791 23.1791 30.5436C23.2772 30.308 23.3278 30.0553 23.3278 29.8C23.3278 29.5448 23.2772 29.2921 23.1791 29.0565C23.0809 28.8209 22.9371 28.6071 22.7559 28.4274L18.3092 24L22.7559 19.5727C22.9371 19.393 23.0809 19.1791 23.1791 18.9436C23.2772 18.708 23.3278 18.4553 23.3278 18.2C23.3278 17.9448 23.2772 17.6921 23.1791 17.4565C23.0809 17.2209 22.9371 17.0071 22.7559 16.8274ZM28.9425 24L33.4665 19.5727C33.8306 19.2086 34.0351 18.7149 34.0351 18.2C34.0351 17.6852 33.8306 17.1914 33.4665 16.8274C33.1025 16.4633 32.6087 16.2588 32.0939 16.2588C31.579 16.2588 31.0853 16.4633 30.7212 16.8274L24.9212 22.6274C24.74 22.8071 24.5962 23.0209 24.498 23.2565C24.3999 23.4921 24.3493 23.7448 24.3493 24C24.3493 24.2553 24.3999 24.508 24.498 24.7436C24.5962 24.9791 24.74 25.193 24.9212 25.3727L30.7212 31.1727C30.9009 31.3539 31.1148 31.4977 31.3504 31.5959C31.586 31.694 31.8387 31.7446 32.0939 31.7446C32.3491 31.7446 32.6018 31.694 32.8374 31.5959C33.073 31.4977 33.2868 31.3539 33.4665 31.1727C33.6478 30.993 33.7916 30.7791 33.8897 30.5436C33.9879 30.308 34.0384 30.0553 34.0384 29.8C34.0384 29.5448 33.9879 29.2921 33.8897 29.0565C33.7916 28.8209 33.6478 28.6071 33.4665 28.4274L28.9425 24Z" fill="#353F2F"/>
</svg>
