<svg width="127" height="65" viewBox="0 0 127 65" fill="none" xmlns="http://www.w3.org/2000/svg">
<g filter="url(#filter0_d_278_263)">
<path d="M43.2002 18.2192C43.2002 15.1587 47.7033 8.95217 47.2002 5.93336C46.1723 -0.234244 47.5746 -0.0619618 49.1806 1.56247C51.5514 3.96048 54.4635 5.93336 57.8356 5.93336H68.6599C71.7602 5.93336 74.5433 4.30337 76.7815 2.15801C78.6343 0.382013 80.3307 -0.188739 78.8002 5.93336C77.9388 9.37899 83.2002 14.4982 83.2002 18.0498V36.8524C83.2002 41.8677 79.1345 45.9334 74.1192 45.9334H50.8395C46.6204 45.9334 43.2002 42.5131 43.2002 38.294V18.2192Z" fill="#496E35"/>
</g>
<path fill-rule="evenodd" clip-rule="evenodd" d="M58.6683 15.087C55.9698 15.7943 54.9297 20.3742 56.8771 22.9746C59.0853 25.9232 62.8371 23.85 62.8371 19.6812C62.8371 16.6855 60.8643 14.5114 58.6683 15.087ZM66.1063 15.0647C63.1327 15.879 62.2364 20.8952 64.622 23.3716C67.1627 26.0092 70.7726 23.0172 70.181 18.764C69.8392 16.3066 67.9232 14.5671 66.1063 15.0647ZM53.3615 22.0052C50.539 22.7644 50.4574 28.2296 53.2555 29.1061C54.7716 29.5809 56.1968 28.4815 56.6012 26.5252C57.1431 23.903 55.3916 21.4593 53.3615 22.0052ZM71.8735 22.0062C69.9883 22.5128 69.0986 25.4603 70.1737 27.6373C71.3159 29.9501 74.1202 29.6476 74.9675 27.1201C75.8993 24.3403 74.1216 21.402 71.8735 22.0062ZM61.8875 24.9817C59.7265 25.2557 57.7703 26.4842 56.8179 28.1656C56.7083 28.3589 56.5311 28.6331 56.4241 28.7749C54.6344 31.1455 54.8631 34.5022 56.8823 35.4997C57.8069 35.9564 58.5435 35.7791 60.4378 34.6438C61.8076 33.8228 62.0129 33.736 62.65 33.7085C63.8252 33.6578 64.065 33.7411 65.6141 34.7374C67.3632 35.8625 68.0965 36.0427 69.0345 35.5779C71.0322 34.588 71.3636 31.3366 69.7159 28.8921C69.5942 28.7116 69.4466 28.469 69.3876 28.3531C68.1972 26.0078 65.0284 24.5834 61.8875 24.9817Z" fill="#C8FFA6"/>
<path d="M11.7214 62.2L16.7134 51H19.2734L24.2814 62.2H21.5614L17.4654 52.312H18.4894L14.3774 62.2H11.7214ZM14.2174 59.8L14.9054 57.832H20.6654L21.3694 59.8H14.2174ZM30.4994 53.464C31.1821 53.464 31.7901 53.6027 32.3234 53.88C32.8674 54.1467 33.2941 54.5627 33.6034 55.128C33.9128 55.6827 34.0674 56.3974 34.0674 57.272V62.2H31.5714V57.656C31.5714 56.9627 31.4168 56.4507 31.1074 56.12C30.8088 55.7894 30.3821 55.624 29.8274 55.624C29.4328 55.624 29.0754 55.7094 28.7554 55.88C28.4461 56.04 28.2008 56.2907 28.0194 56.632C27.8488 56.9734 27.7634 57.4107 27.7634 57.944V62.2H25.2674V53.592H27.6514V55.976L27.2034 55.256C27.5128 54.68 27.9554 54.2374 28.5314 53.928C29.1074 53.6187 29.7634 53.464 30.4994 53.464ZM36.3299 62.2V53.592H38.8259V62.2H36.3299ZM37.5779 52.392C37.1193 52.392 36.7459 52.2587 36.4579 51.992C36.1699 51.7254 36.0259 51.3947 36.0259 51C36.0259 50.6054 36.1699 50.2747 36.4579 50.008C36.7459 49.7414 37.1193 49.608 37.5779 49.608C38.0366 49.608 38.4099 49.736 38.6979 49.992C38.9859 50.2374 39.1299 50.5574 39.1299 50.952C39.1299 51.368 38.9859 51.7147 38.6979 51.992C38.4206 52.2587 38.0473 52.392 37.5779 52.392ZM52.1664 53.464C52.8491 53.464 53.4518 53.6027 53.9744 53.88C54.5078 54.1467 54.9238 54.5627 55.2224 55.128C55.5318 55.6827 55.6864 56.3974 55.6864 57.272V62.2H53.1904V57.656C53.1904 56.9627 53.0464 56.4507 52.7584 56.12C52.4704 55.7894 52.0651 55.624 51.5424 55.624C51.1798 55.624 50.8544 55.7094 50.5664 55.88C50.2784 56.04 50.0544 56.2854 49.8944 56.616C49.7344 56.9467 49.6544 57.368 49.6544 57.88V62.2H47.1584V57.656C47.1584 56.9627 47.0144 56.4507 46.7264 56.12C46.4491 55.7894 46.0491 55.624 45.5264 55.624C45.1638 55.624 44.8384 55.7094 44.5504 55.88C44.2624 56.04 44.0384 56.2854 43.8784 56.616C43.7184 56.9467 43.6384 57.368 43.6384 57.88V62.2H41.1424V53.592H43.5264V55.944L43.0784 55.256C43.3771 54.6694 43.7984 54.2267 44.3424 53.928C44.8971 53.6187 45.5264 53.464 46.2304 53.464C47.0198 53.464 47.7078 53.6667 48.2944 54.072C48.8918 54.4667 49.2864 55.0747 49.4784 55.896L48.5984 55.656C48.8864 54.984 49.3451 54.4507 49.9744 54.056C50.6144 53.6614 51.3451 53.464 52.1664 53.464ZM63.2037 62.2V60.52L63.0437 60.152V57.144C63.0437 56.6107 62.8783 56.1947 62.5477 55.896C62.2277 55.5974 61.7317 55.448 61.0597 55.448C60.601 55.448 60.1477 55.5227 59.6997 55.672C59.2623 55.8107 58.889 56.0027 58.5797 56.248L57.6837 54.504C58.153 54.1734 58.7183 53.9174 59.3797 53.736C60.041 53.5547 60.713 53.464 61.3957 53.464C62.7077 53.464 63.7263 53.7734 64.4517 54.392C65.177 55.0107 65.5397 55.976 65.5397 57.288V62.2H63.2037ZM60.5797 62.328C59.9077 62.328 59.3317 62.216 58.8517 61.992C58.3717 61.7574 58.0037 61.4427 57.7477 61.048C57.4917 60.6534 57.3637 60.2107 57.3637 59.72C57.3637 59.208 57.4863 58.76 57.7317 58.376C57.9877 57.992 58.3877 57.6934 58.9317 57.48C59.4757 57.256 60.185 57.144 61.0597 57.144H63.3477V58.6H61.3317C60.745 58.6 60.3397 58.696 60.1157 58.888C59.9023 59.08 59.7957 59.32 59.7957 59.608C59.7957 59.928 59.9183 60.184 60.1637 60.376C60.4197 60.5574 60.7663 60.648 61.2037 60.648C61.6197 60.648 61.993 60.552 62.3237 60.36C62.6543 60.1574 62.8943 59.864 63.0437 59.48L63.4277 60.632C63.2463 61.1867 62.9157 61.608 62.4357 61.896C61.9557 62.184 61.337 62.328 60.5797 62.328ZM67.7987 62.2V50.328H70.2947V62.2H67.7987ZM80.9984 62.392C80.1024 62.392 79.2438 62.2747 78.4224 62.04C77.6011 61.7947 76.9398 61.48 76.4384 61.096L77.3184 59.144C77.7984 59.4854 78.3638 59.768 79.0144 59.992C79.6758 60.2054 80.3424 60.312 81.0144 60.312C81.5264 60.312 81.9371 60.264 82.2464 60.168C82.5664 60.0614 82.8011 59.9174 82.9504 59.736C83.0998 59.5547 83.1744 59.3467 83.1744 59.112C83.1744 58.8134 83.0571 58.5787 82.8224 58.408C82.5878 58.2267 82.2784 58.0827 81.8944 57.976C81.5104 57.8587 81.0838 57.752 80.6144 57.656C80.1558 57.5494 79.6918 57.4214 79.2224 57.272C78.7638 57.1227 78.3424 56.9307 77.9584 56.696C77.5744 56.4614 77.2598 56.152 77.0144 55.768C76.7798 55.384 76.6624 54.8934 76.6624 54.296C76.6624 53.656 76.8331 53.0747 77.1744 52.552C77.5264 52.0187 78.0491 51.5974 78.7424 51.288C79.4464 50.968 80.3264 50.808 81.3824 50.808C82.0864 50.808 82.7798 50.8934 83.4624 51.064C84.1451 51.224 84.7478 51.4694 85.2704 51.8L84.4704 53.768C83.9478 53.4694 83.4251 53.2507 82.9024 53.112C82.3798 52.9627 81.8678 52.888 81.3664 52.888C80.8651 52.888 80.4544 52.9467 80.1344 53.064C79.8144 53.1814 79.5851 53.336 79.4464 53.528C79.3078 53.7094 79.2384 53.9227 79.2384 54.168C79.2384 54.456 79.3558 54.6907 79.5904 54.872C79.8251 55.0427 80.1344 55.1814 80.5184 55.288C80.9024 55.3947 81.3238 55.5014 81.7824 55.608C82.2518 55.7147 82.7158 55.8374 83.1744 55.976C83.6438 56.1147 84.0704 56.3014 84.4544 56.536C84.8384 56.7707 85.1478 57.08 85.3824 57.464C85.6278 57.848 85.7504 58.3334 85.7504 58.92C85.7504 59.5494 85.5744 60.1254 85.2224 60.648C84.8704 61.1707 84.3424 61.592 83.6384 61.912C82.9451 62.232 82.0651 62.392 80.9984 62.392ZM92.6256 62.2V60.52L92.4656 60.152V57.144C92.4656 56.6107 92.3002 56.1947 91.9696 55.896C91.6496 55.5974 91.1536 55.448 90.4816 55.448C90.0229 55.448 89.5696 55.5227 89.1216 55.672C88.6842 55.8107 88.3109 56.0027 88.0016 56.248L87.1056 54.504C87.5749 54.1734 88.1402 53.9174 88.8016 53.736C89.4629 53.5547 90.1349 53.464 90.8176 53.464C92.1296 53.464 93.1482 53.7734 93.8736 54.392C94.5989 55.0107 94.9616 55.976 94.9616 57.288V62.2H92.6256ZM90.0016 62.328C89.3296 62.328 88.7536 62.216 88.2736 61.992C87.7936 61.7574 87.4256 61.4427 87.1696 61.048C86.9136 60.6534 86.7856 60.2107 86.7856 59.72C86.7856 59.208 86.9082 58.76 87.1536 58.376C87.4096 57.992 87.8096 57.6934 88.3536 57.48C88.8976 57.256 89.6069 57.144 90.4816 57.144H92.7696V58.6H90.7536C90.1669 58.6 89.7616 58.696 89.5376 58.888C89.3242 59.08 89.2176 59.32 89.2176 59.608C89.2176 59.928 89.3402 60.184 89.5856 60.376C89.8416 60.5574 90.1882 60.648 90.6256 60.648C91.0416 60.648 91.4149 60.552 91.7456 60.36C92.0762 60.1574 92.3162 59.864 92.4656 59.48L92.8496 60.632C92.6682 61.1867 92.3376 61.608 91.8576 61.896C91.3776 62.184 90.7589 62.328 90.0016 62.328ZM99.4003 62.2L95.7843 53.592H98.3603L101.368 61H100.088L103.208 53.592H105.608L101.976 62.2H99.4003ZM110.664 62.328C109.683 62.328 108.819 62.136 108.072 61.752C107.336 61.368 106.766 60.8454 106.36 60.184C105.955 59.512 105.752 58.7494 105.752 57.896C105.752 57.032 105.95 56.2694 106.344 55.608C106.75 54.936 107.299 54.4134 107.992 54.04C108.686 53.656 109.47 53.464 110.344 53.464C111.187 53.464 111.944 53.6454 112.616 54.008C113.299 54.36 113.838 54.872 114.232 55.544C114.627 56.2054 114.824 57 114.824 57.928C114.824 58.024 114.819 58.136 114.808 58.264C114.798 58.3814 114.787 58.4934 114.776 58.6H107.784V57.144H113.464L112.504 57.576C112.504 57.128 112.414 56.7387 112.232 56.408C112.051 56.0774 111.8 55.8214 111.48 55.64C111.16 55.448 110.787 55.352 110.36 55.352C109.934 55.352 109.555 55.448 109.224 55.64C108.904 55.8214 108.654 56.0827 108.472 56.424C108.291 56.7547 108.2 57.1494 108.2 57.608V57.992C108.2 58.4614 108.302 58.8774 108.504 59.24C108.718 59.592 109.011 59.864 109.384 60.056C109.768 60.2374 110.216 60.328 110.728 60.328C111.187 60.328 111.587 60.2587 111.928 60.12C112.28 59.9814 112.6 59.7734 112.888 59.496L114.216 60.936C113.822 61.384 113.326 61.7307 112.728 61.976C112.131 62.2107 111.443 62.328 110.664 62.328Z" fill="#496E35"/>
<defs>
<filter id="filter0_d_278_263" x="43.2002" y="0.600023" width="40" height="45.3333" filterUnits="userSpaceOnUse" color-interpolation-filters="sRGB">
<feFlood flood-opacity="0" result="BackgroundImageFix"/>
<feColorMatrix in="SourceAlpha" type="matrix" values="0 0 0 0 0 0 0 0 0 0 0 0 0 0 0 0 0 0 127 0" result="hardAlpha"/>
<feOffset/>
<feComposite in2="hardAlpha" operator="out"/>
<feColorMatrix type="matrix" values="0 0 0 0 0 0 0 0 0 0 0 0 0 0 0 0 0 0 0.25 0"/>
<feBlend mode="normal" in2="BackgroundImageFix" result="effect1_dropShadow_278_263"/>
<feBlend mode="normal" in="SourceGraphic" in2="effect1_dropShadow_278_263" result="shape"/>
</filter>
</defs>
</svg>
