<svg width="104" height="65" viewBox="0 0 104 65" fill="none" xmlns="http://www.w3.org/2000/svg">
<g filter="url(#filter0_d_278_132)">
<path d="M31.6006 18.4197C31.6006 15.3592 36.1037 9.15269 35.6006 6.13387C34.5727 -0.0337305 35.975 0.138552 37.581 1.76298C39.9518 4.16099 42.8639 6.13387 46.236 6.13387H57.0603C60.1606 6.13387 62.9437 4.50388 65.1819 2.35852C67.0347 0.582527 68.7311 0.0117745 67.2006 6.13387C66.3392 9.57951 71.6006 14.6987 71.6006 18.2504V37.0529C71.6006 42.0682 67.5349 46.1339 62.5196 46.1339H39.2399C35.0208 46.1339 31.6006 42.7136 31.6006 38.4945V18.4197Z" fill="#C8FFA6"/>
</g>
<path fill-rule="evenodd" clip-rule="evenodd" d="M47.0687 15.2875C44.3702 15.9948 43.3301 20.5747 45.2775 23.1751C47.4857 26.1237 51.2375 24.0505 51.2375 19.8817C51.2375 16.8859 49.2647 14.7118 47.0687 15.2875ZM54.5067 15.2652C51.5331 16.0795 50.6368 21.0957 53.0224 23.5721C55.5631 26.2097 59.173 23.2177 58.5814 18.9645C58.2396 16.5071 56.3236 14.7676 54.5067 15.2652ZM41.7619 22.2057C38.9394 22.9648 38.8578 28.4301 41.6559 29.3065C43.172 29.7814 44.5972 28.682 45.0016 26.7256C45.5435 24.1035 43.792 21.6598 41.7619 22.2057ZM60.2739 22.2067C58.3887 22.7133 57.499 25.6608 58.5741 27.8378C59.7163 30.1506 62.5206 29.848 63.3679 27.3206C64.2997 24.5407 62.522 21.6025 60.2739 22.2067ZM50.2879 25.1822C48.1269 25.4562 46.1707 26.6847 45.2183 28.366C45.1087 28.5594 44.9315 28.8336 44.8245 28.9754C43.0348 31.3459 43.2635 34.7026 45.2827 35.7001C46.2073 36.1569 46.9439 35.9796 48.8382 34.8443C50.208 34.0233 50.4133 33.9365 51.0504 33.909C52.2256 33.8583 52.4654 33.9415 54.0145 34.9379C55.7636 36.063 56.4969 36.2432 57.4349 35.7784C59.4326 34.7885 59.764 31.5371 58.1163 29.0926C57.9946 28.9121 57.847 28.6695 57.788 28.5535C56.5976 26.2083 53.4288 24.7839 50.2879 25.1822Z" fill="#496F35"/>
<path d="M0.121625 62L5.11363 50.8H7.67363L12.6816 62H9.96163L5.86563 52.112H6.88963L2.77763 62H0.121625ZM2.61762 59.6L3.30563 57.632H9.06563L9.76963 59.6H2.61762ZM18.8996 53.264C19.5823 53.264 20.1903 53.4027 20.7236 53.68C21.2676 53.9467 21.6943 54.3627 22.0036 54.928C22.313 55.4827 22.4676 56.1973 22.4676 57.072V62H19.9716V57.456C19.9716 56.7627 19.817 56.2507 19.5076 55.92C19.209 55.5893 18.7823 55.424 18.2276 55.424C17.833 55.424 17.4756 55.5093 17.1556 55.68C16.8463 55.84 16.601 56.0907 16.4196 56.432C16.249 56.7733 16.1636 57.2107 16.1636 57.744V62H13.6676V53.392H16.0516V55.776L15.6036 55.056C15.913 54.48 16.3556 54.0373 16.9316 53.728C17.5076 53.4187 18.1636 53.264 18.8996 53.264ZM24.7301 62V53.392H27.2261V62H24.7301ZM25.9781 52.192C25.5195 52.192 25.1461 52.0587 24.8581 51.792C24.5701 51.5253 24.4261 51.1947 24.4261 50.8C24.4261 50.4053 24.5701 50.0747 24.8581 49.808C25.1461 49.5413 25.5195 49.408 25.9781 49.408C26.4368 49.408 26.8101 49.536 27.0981 49.792C27.3861 50.0373 27.5301 50.3573 27.5301 50.752C27.5301 51.168 27.3861 51.5147 27.0981 51.792C26.8208 52.0587 26.4475 52.192 25.9781 52.192ZM40.5666 53.264C41.2493 53.264 41.852 53.4027 42.3746 53.68C42.908 53.9467 43.324 54.3627 43.6226 54.928C43.932 55.4827 44.0866 56.1973 44.0866 57.072V62H41.5906V57.456C41.5906 56.7627 41.4466 56.2507 41.1586 55.92C40.8706 55.5893 40.4653 55.424 39.9426 55.424C39.58 55.424 39.2546 55.5093 38.9666 55.68C38.6786 55.84 38.4546 56.0853 38.2946 56.416C38.1346 56.7467 38.0546 57.168 38.0546 57.68V62H35.5586V57.456C35.5586 56.7627 35.4146 56.2507 35.1266 55.92C34.8493 55.5893 34.4493 55.424 33.9266 55.424C33.564 55.424 33.2386 55.5093 32.9506 55.68C32.6626 55.84 32.4386 56.0853 32.2786 56.416C32.1186 56.7467 32.0386 57.168 32.0386 57.68V62H29.5426V53.392H31.9266V55.744L31.4786 55.056C31.7773 54.4693 32.1986 54.0267 32.7426 53.728C33.2973 53.4187 33.9266 53.264 34.6306 53.264C35.42 53.264 36.108 53.4667 36.6946 53.872C37.292 54.2667 37.6866 54.8747 37.8786 55.696L36.9986 55.456C37.2866 54.784 37.7453 54.2507 38.3746 53.856C39.0146 53.4613 39.7453 53.264 40.5666 53.264ZM51.6039 62V60.32L51.4439 59.952V56.944C51.4439 56.4107 51.2785 55.9947 50.9479 55.696C50.6279 55.3973 50.1319 55.248 49.4599 55.248C49.0012 55.248 48.5479 55.3227 48.0999 55.472C47.6625 55.6107 47.2892 55.8027 46.9799 56.048L46.0839 54.304C46.5532 53.9733 47.1185 53.7173 47.7799 53.536C48.4412 53.3547 49.1132 53.264 49.7959 53.264C51.1079 53.264 52.1265 53.5733 52.8519 54.192C53.5772 54.8107 53.9399 55.776 53.9399 57.088V62H51.6039ZM48.9799 62.128C48.3079 62.128 47.7319 62.016 47.2519 61.792C46.7719 61.5573 46.4039 61.2427 46.1479 60.848C45.8919 60.4533 45.7639 60.0107 45.7639 59.52C45.7639 59.008 45.8865 58.56 46.1319 58.176C46.3879 57.792 46.7879 57.4933 47.3319 57.28C47.8759 57.056 48.5852 56.944 49.4599 56.944H51.7479V58.4H49.7319C49.1452 58.4 48.7399 58.496 48.5159 58.688C48.3025 58.88 48.1959 59.12 48.1959 59.408C48.1959 59.728 48.3185 59.984 48.5639 60.176C48.8199 60.3573 49.1665 60.448 49.6039 60.448C50.0199 60.448 50.3932 60.352 50.7239 60.16C51.0545 59.9573 51.2945 59.664 51.4439 59.28L51.8279 60.432C51.6465 60.9867 51.3159 61.408 50.8359 61.696C50.3559 61.984 49.7372 62.128 48.9799 62.128ZM56.1989 62V50.128H58.6949V62H56.1989ZM69.3986 62.192C68.5026 62.192 67.644 62.0747 66.8226 61.84C66.0013 61.5947 65.34 61.28 64.8386 60.896L65.7186 58.944C66.1986 59.2853 66.764 59.568 67.4146 59.792C68.076 60.0053 68.7426 60.112 69.4146 60.112C69.9266 60.112 70.3373 60.064 70.6466 59.968C70.9666 59.8613 71.2013 59.7173 71.3506 59.536C71.5 59.3547 71.5746 59.1467 71.5746 58.912C71.5746 58.6133 71.4573 58.3787 71.2226 58.208C70.988 58.0267 70.6786 57.8827 70.2946 57.776C69.9106 57.6587 69.484 57.552 69.0146 57.456C68.556 57.3493 68.092 57.2213 67.6226 57.072C67.164 56.9227 66.7426 56.7307 66.3586 56.496C65.9746 56.2613 65.66 55.952 65.4146 55.568C65.18 55.184 65.0626 54.6933 65.0626 54.096C65.0626 53.456 65.2333 52.8747 65.5746 52.352C65.9266 51.8187 66.4493 51.3973 67.1426 51.088C67.8466 50.768 68.7266 50.608 69.7826 50.608C70.4866 50.608 71.18 50.6933 71.8626 50.864C72.5453 51.024 73.148 51.2693 73.6706 51.6L72.8706 53.568C72.348 53.2693 71.8253 53.0507 71.3026 52.912C70.78 52.7627 70.268 52.688 69.7666 52.688C69.2653 52.688 68.8546 52.7467 68.5346 52.864C68.2146 52.9813 67.9853 53.136 67.8466 53.328C67.708 53.5093 67.6386 53.7227 67.6386 53.968C67.6386 54.256 67.756 54.4907 67.9906 54.672C68.2253 54.8427 68.5346 54.9813 68.9186 55.088C69.3026 55.1947 69.724 55.3013 70.1826 55.408C70.652 55.5147 71.116 55.6373 71.5746 55.776C72.044 55.9147 72.4706 56.1013 72.8546 56.336C73.2386 56.5707 73.548 56.88 73.7826 57.264C74.028 57.648 74.1506 58.1333 74.1506 58.72C74.1506 59.3493 73.9746 59.9253 73.6226 60.448C73.2706 60.9707 72.7426 61.392 72.0386 61.712C71.3453 62.032 70.4653 62.192 69.3986 62.192ZM81.0258 62V60.32L80.8658 59.952V56.944C80.8658 56.4107 80.7004 55.9947 80.3698 55.696C80.0498 55.3973 79.5538 55.248 78.8818 55.248C78.4231 55.248 77.9698 55.3227 77.5218 55.472C77.0844 55.6107 76.7111 55.8027 76.4018 56.048L75.5058 54.304C75.9751 53.9733 76.5404 53.7173 77.2018 53.536C77.8631 53.3547 78.5351 53.264 79.2178 53.264C80.5298 53.264 81.5484 53.5733 82.2738 54.192C82.9991 54.8107 83.3618 55.776 83.3618 57.088V62H81.0258ZM78.4018 62.128C77.7298 62.128 77.1538 62.016 76.6738 61.792C76.1938 61.5573 75.8258 61.2427 75.5698 60.848C75.3138 60.4533 75.1858 60.0107 75.1858 59.52C75.1858 59.008 75.3084 58.56 75.5538 58.176C75.8098 57.792 76.2098 57.4933 76.7538 57.28C77.2978 57.056 78.0071 56.944 78.8818 56.944H81.1698V58.4H79.1538C78.5671 58.4 78.1618 58.496 77.9378 58.688C77.7244 58.88 77.6178 59.12 77.6178 59.408C77.6178 59.728 77.7404 59.984 77.9858 60.176C78.2418 60.3573 78.5884 60.448 79.0258 60.448C79.4418 60.448 79.8151 60.352 80.1458 60.16C80.4764 59.9573 80.7164 59.664 80.8658 59.28L81.2498 60.432C81.0684 60.9867 80.7378 61.408 80.2578 61.696C79.7778 61.984 79.1591 62.128 78.4018 62.128ZM87.8005 62L84.1845 53.392H86.7605L89.7685 60.8H88.4885L91.6085 53.392H94.0085L90.3765 62H87.8005ZM99.0646 62.128C98.0833 62.128 97.2193 61.936 96.4726 61.552C95.7366 61.168 95.166 60.6453 94.7606 59.984C94.3553 59.312 94.1526 58.5493 94.1526 57.696C94.1526 56.832 94.35 56.0693 94.7446 55.408C95.15 54.736 95.6993 54.2133 96.3926 53.84C97.086 53.456 97.87 53.264 98.7446 53.264C99.5873 53.264 100.345 53.4453 101.017 53.808C101.699 54.16 102.238 54.672 102.633 55.344C103.027 56.0053 103.225 56.8 103.225 57.728C103.225 57.824 103.219 57.936 103.209 58.064C103.198 58.1813 103.187 58.2933 103.177 58.4H96.1846V56.944H101.865L100.905 57.376C100.905 56.928 100.814 56.5387 100.633 56.208C100.451 55.8773 100.201 55.6213 99.8806 55.44C99.5606 55.248 99.1873 55.152 98.7606 55.152C98.334 55.152 97.9553 55.248 97.6246 55.44C97.3046 55.6213 97.054 55.8827 96.8726 56.224C96.6913 56.5547 96.6006 56.9493 96.6006 57.408V57.792C96.6006 58.2613 96.702 58.6773 96.9046 59.04C97.118 59.392 97.4113 59.664 97.7846 59.856C98.1686 60.0373 98.6166 60.128 99.1286 60.128C99.5873 60.128 99.9873 60.0587 100.329 59.92C100.681 59.7813 101.001 59.5733 101.289 59.296L102.617 60.736C102.222 61.184 101.726 61.5307 101.129 61.776C100.531 62.0107 99.8433 62.128 99.0646 62.128Z" fill="#C8FFA6"/>
<defs>
<filter id="filter0_d_278_132" x="31.6006" y="0.800537" width="40" height="45.3333" filterUnits="userSpaceOnUse" color-interpolation-filters="sRGB">
<feFlood flood-opacity="0" result="BackgroundImageFix"/>
<feColorMatrix in="SourceAlpha" type="matrix" values="0 0 0 0 0 0 0 0 0 0 0 0 0 0 0 0 0 0 127 0" result="hardAlpha"/>
<feOffset/>
<feComposite in2="hardAlpha" operator="out"/>
<feColorMatrix type="matrix" values="0 0 0 0 0.784314 0 0 0 0 1 0 0 0 0 0.65098 0 0 0 0.25 0"/>
<feBlend mode="normal" in2="BackgroundImageFix" result="effect1_dropShadow_278_132"/>
<feBlend mode="normal" in="SourceGraphic" in2="effect1_dropShadow_278_132" result="shape"/>
</filter>
</defs>
</svg>
