<svg width="43" height="43" viewBox="0 0 43 43" fill="none" xmlns="http://www.w3.org/2000/svg">
<path d="M38.8665 14.4152C38.8751 14.3035 38.8751 14.1913 38.8665 14.0796L35.3332 5.24624C35.1952 4.89707 34.9496 4.60094 34.6319 4.40081C34.3142 4.20068 33.9411 4.10696 33.5665 4.13324H8.8332C8.47938 4.1329 8.1336 4.23881 7.84066 4.43725C7.54772 4.63569 7.32112 4.91753 7.1902 5.24624L3.65687 14.0796C3.64835 14.1913 3.64835 14.3035 3.65687 14.4152C3.59816 14.5136 3.55636 14.6211 3.5332 14.7332C3.55287 15.9544 3.8887 17.1497 4.50795 18.2024C5.1272 19.2551 6.00872 20.1294 7.06654 20.7399V37.6999C7.06654 38.1685 7.25267 38.6178 7.58398 38.9491C7.9153 39.2804 8.36465 39.4666 8.8332 39.4666H33.5665C34.0351 39.4666 34.4844 39.2804 34.8158 38.9491C35.1471 38.6178 35.3332 38.1685 35.3332 37.6999V20.8106C36.4012 20.194 37.2893 19.3086 37.9092 18.2424C38.529 17.1763 38.8591 15.9665 38.8665 14.7332C38.8831 14.6279 38.8831 14.5206 38.8665 14.4152ZM22.9665 35.9332H19.4332V28.8666H22.9665V35.9332ZM31.7999 35.9332H26.4999V27.0999C26.4999 26.6314 26.3137 26.182 25.9824 25.8507C25.6511 25.5194 25.2018 25.3332 24.7332 25.3332H17.6665C17.198 25.3332 16.7486 25.5194 16.4173 25.8507C16.086 26.182 15.8999 26.6314 15.8999 27.0999V35.9332H10.5999V21.7999C11.6059 21.7942 12.5992 21.5738 13.5132 21.1534C14.4272 20.7329 15.2409 20.1221 15.8999 19.3619C16.563 20.1138 17.3786 20.7161 18.2924 21.1286C19.2062 21.5411 20.1973 21.7544 21.1999 21.7544C22.2025 21.7544 23.1936 21.5411 24.1074 21.1286C25.0212 20.7161 25.8367 20.1138 26.4999 19.3619C27.1588 20.1221 27.9725 20.7329 28.8865 21.1534C29.8006 21.5738 30.7938 21.7942 31.7999 21.7999V35.9332ZM31.7999 18.2666C30.8628 18.2666 29.9641 17.8943 29.3014 17.2317C28.6388 16.5691 28.2665 15.6703 28.2665 14.7332C28.2665 14.2647 28.0804 13.8153 27.7491 13.484C27.4178 13.1527 26.9684 12.9666 26.4999 12.9666C26.0313 12.9666 25.582 13.1527 25.2506 13.484C24.9193 13.8153 24.7332 14.2647 24.7332 14.7332C24.7332 15.6703 24.3609 16.5691 23.6983 17.2317C23.0357 17.8943 22.137 18.2666 21.1999 18.2666C20.2628 18.2666 19.3641 17.8943 18.7014 17.2317C18.0388 16.5691 17.6665 15.6703 17.6665 14.7332C17.6665 14.2647 17.4804 13.8153 17.1491 13.484C16.8178 13.1527 16.3684 12.9666 15.8999 12.9666C15.4313 12.9666 14.982 13.1527 14.6506 13.484C14.3193 13.8153 14.1332 14.2647 14.1332 14.7332C14.1506 15.1972 14.0764 15.6601 13.915 16.0955C13.7535 16.5308 13.5078 16.9301 13.192 17.2705C12.8762 17.6109 12.4965 17.8858 12.0744 18.0794C11.6524 18.2731 11.1964 18.3817 10.7324 18.3991C9.79527 18.4342 8.88259 18.0957 8.19512 17.4579C7.85471 17.1421 7.57984 16.7623 7.3862 16.3403C7.19256 15.9183 7.08394 15.4622 7.06654 14.9982L10.0345 7.66657H32.3652L35.3332 14.9982C35.2662 15.8887 34.8646 16.7207 34.2091 17.3271C33.5536 17.9334 32.6928 18.2691 31.7999 18.2666Z" fill="#374231"/>
</svg>
