<svg width="17" height="17" viewBox="0 0 17 17" fill="none" xmlns="http://www.w3.org/2000/svg">
<path fill-rule="evenodd" clip-rule="evenodd" d="M12.4007 4.59998C12.4007 6.80911 10.6093 8.59998 8.39953 8.59998C6.18972 8.59998 4.39832 6.80911 4.39832 4.59998C4.39832 2.39084 6.18972 0.599976 8.39953 0.599976C10.6093 0.599976 12.4007 2.39084 12.4007 4.59998ZM10.8008 4.59995C10.8008 3.27447 9.72597 2.19995 8.40009 2.19995C7.0742 2.19995 5.99936 3.27447 5.99936 4.59995C5.99936 5.92543 7.0742 6.99995 8.40009 6.99995C9.72597 6.99995 10.8008 5.92543 10.8008 4.59995ZM16.3148 15.44L14.8023 12.408C14.124 11.0546 12.7395 10.2 11.2252 10.2H5.57554C4.06131 10.2 2.67683 11.0546 1.99845 12.408L0.485996 15.44C0.361183 15.6876 0.373526 15.9821 0.518617 16.2184C0.663707 16.4548 0.920853 16.5991 1.19821 16.6H15.6026C15.8799 16.5991 16.1371 16.4548 16.2822 16.2184C16.4273 15.9821 16.4396 15.6876 16.3148 15.44ZM3.43146 13.128L2.49518 15H14.3068L13.3705 13.128C12.9646 12.3153 12.1345 11.8013 11.2258 11.8H5.57611C4.66744 11.8013 3.83734 12.3153 3.43146 13.128Z" fill="#353F2F"/>
</svg>
