<svg width="47" height="48" viewBox="0 0 47 48" fill="none" xmlns="http://www.w3.org/2000/svg">
<path d="M16.3565 16.8274C15.9924 16.4531 15.4946 16.2388 14.9725 16.2315C14.4504 16.2243 13.9468 16.4247 13.5725 16.7888C13.1981 17.1528 12.9838 17.6507 12.9765 18.1728C12.9693 18.6949 13.1697 19.1985 13.5338 19.5728L18.0578 24.0001L13.5338 28.4274C13.3526 28.6072 13.2088 28.821 13.1106 29.0566C13.0124 29.2922 12.9619 29.5449 12.9619 29.8001C12.9619 30.0553 13.0124 30.308 13.1106 30.5436C13.2088 30.7792 13.3526 30.993 13.5338 31.1728C13.7135 31.354 13.9273 31.4978 14.1629 31.596C14.3985 31.6941 14.6512 31.7446 14.9065 31.7446C15.1617 31.7446 15.4144 31.6941 15.65 31.596C15.8856 31.4978 16.0994 31.354 16.2791 31.1728L22.0791 25.3728C22.2603 25.193 22.4042 24.9792 22.5023 24.7436C22.6005 24.508 22.651 24.2553 22.651 24.0001C22.651 23.7449 22.6005 23.4922 22.5023 23.2566C22.4042 23.021 22.2603 22.8072 22.0791 22.6274L16.3565 16.8274ZM32.7898 22.6274L26.9898 16.8274C26.6257 16.4634 26.132 16.2589 25.6171 16.2589C25.1023 16.2589 24.6085 16.4634 24.2445 16.8274C23.8804 17.1915 23.6759 17.6852 23.6759 18.2001C23.6759 18.7149 23.8804 19.2087 24.2445 19.5728L28.6911 24.0001L24.2445 28.4274C24.0633 28.6072 23.9194 28.821 23.8213 29.0566C23.7231 29.2922 23.6726 29.5449 23.6726 29.8001C23.6726 30.0553 23.7231 30.308 23.8213 30.5436C23.9194 30.7792 24.0633 30.993 24.2445 31.1728C24.4242 31.354 24.638 31.4978 24.8736 31.596C25.1092 31.6941 25.3619 31.7446 25.6171 31.7446C25.8723 31.7446 26.125 31.6941 26.3606 31.596C26.5962 31.4978 26.8101 31.354 26.9898 31.1728L32.7898 25.3728C32.9762 25.1982 33.1261 24.9884 33.2309 24.7556C33.3358 24.5228 33.3935 24.2715 33.4007 24.0162C33.4078 23.761 33.3644 23.5068 33.2728 23.2685C33.1813 23.0301 33.0434 22.8122 32.8671 22.6274H32.7898Z" fill="#353F2F"/>
</svg>
