<svg width="16" height="16" viewBox="0 0 16 16" fill="none" xmlns="http://www.w3.org/2000/svg">
<path fill-rule="evenodd" clip-rule="evenodd" d="M12.315 11.1179L15.6922 14.4997C15.843 14.6675 15.8356 14.9244 15.6753 15.0831L15.0843 15.6749C15.005 15.755 14.8971 15.8 14.7846 15.8C14.672 15.8 14.5641 15.755 14.4849 15.6749L11.1077 12.2931C11.0143 12.1995 10.9295 12.0976 10.8544 11.9887L10.2212 11.1433C9.17351 11.9811 7.87246 12.4372 6.53169 12.4368C3.76886 12.4464 1.36806 10.5379 0.750639 7.84117C0.133218 5.14444 1.46396 2.37921 3.95501 1.18257C6.44607 -0.014069 9.43263 0.677253 11.1466 2.84725C12.8605 5.01725 12.8444 8.08679 11.1077 10.2386L11.952 10.822C12.0839 10.9065 12.2057 11.0058 12.315 11.1179ZM2.311 6.51833C2.311 8.85301 4.201 10.7456 6.53243 10.7456C7.65203 10.7456 8.72576 10.3003 9.51743 9.50749C10.3091 8.71472 10.7539 7.63948 10.7539 6.51833C10.7539 4.18365 8.86386 2.29102 6.53243 2.29102C4.201 2.29102 2.311 4.18365 2.311 6.51833Z" fill="#353F2F"/>
</svg>
